<svg width="26" height="26" viewBox="0 0 26 26" fill="none" xmlns="http://www.w3.org/2000/svg">
<path fill-rule="evenodd" clip-rule="evenodd" d="M14.3656 2.1819C14.1041 2.06613 13.8136 2.06613 13.5521 2.15296L1.95884 6.52337C1.37772 6.72598 1 7.2759 1 7.91265V18.6216C1 19.0558 1.2615 19.461 1.66828 19.6057L12.4479 23.8314C12.5932 23.8893 12.7385 23.8893 12.8838 23.8314L24.0993 19.0558C24.6513 18.8242 25 18.3032 25 17.6954V7.56533C25 7.13118 24.7385 6.72598 24.3317 6.55232L14.3656 2.1819Z" fill="#92C054" stroke="white" stroke-width="1.08797" stroke-miterlimit="10"/>
<path d="M8.87395 3.9187L20.2638 8.57855C20.5543 8.69432 20.7577 8.98375 20.7577 9.33107V12.6885C20.7577 13.0647 20.5253 13.4121 20.1476 13.5278L18.8401 13.9909C18.2589 14.1935 17.6197 13.7594 17.6197 13.1516V10.4599C17.6197 10.1415 17.4163 9.85205 17.1258 9.70733L5.67783 5.01854" stroke="white" stroke-width="1.08797" stroke-miterlimit="10"/>
<path d="M15.7564 17.9485V20.4087" stroke="white" stroke-width="1.08797" stroke-miterlimit="10" stroke-linecap="round"/>
<path d="M19.3589 16.3855V18.8167" stroke="white" stroke-width="1.08797" stroke-miterlimit="10" stroke-linecap="round"/>
<path d="M22.6135 14.9668V17.398" stroke="white" stroke-width="1.08797" stroke-miterlimit="10" stroke-linecap="round"/>
<path d="M1.03464 7.09863L12.5246 12.106V23.9092" stroke="white" stroke-width="1.08797" stroke-miterlimit="10"/>
<path d="M12.5246 12.1057L18.6512 9.62013L24.6512 7.04419" stroke="white" stroke-width="1.08797" stroke-miterlimit="10"/>
</svg>
